<?xml version="1.0" standalone="no"?>
<!DOCTYPE svg PUBLIC "-//W3C//DTD SVG 20010904//EN"
 "http://www.w3.org/TR/2001/REC-SVG-20010904/DTD/svg10.dtd">
<svg version="1.0" xmlns="http://www.w3.org/2000/svg"
 width="512.000000pt" height="512.000000pt" viewBox="0 0 512.000000 512.000000"
 preserveAspectRatio="xMidYMid meet">
<metadata>
Created by potrace 1.11, written by Peter Selinger 2001-2013
</metadata>
<g transform="translate(0.000000,512.000000) scale(0.100000,-0.100000)"
fill="#000000" stroke="none">
<path d="M1125 5105 c-104 -19 -114 -22 -185 -45 -259 -87 -470 -307 -585
-614 -33 -87 -74 -244 -81 -310 -3 -28 -7 -57 -10 -65 -2 -7 -7 -51 -10 -96
-7 -88 7 -134 46 -155 25 -13 106 -23 198 -23 66 0 76 3 102 28 18 18 31 42
35 69 4 22 9 55 11 71 11 68 56 182 101 253 48 75 135 157 201 189 49 24 69
28 142 28 120 -1 195 -38 305 -149 94 -94 154 -182 231 -334 64 -129 155 -364
157 -408 1 -18 5 -30 10 -27 4 2 7 2 7 0 0 -2 20 -74 43 -158 24 -85 54 -202
67 -261 l23 -108 -28 -62 c-16 -35 -45 -100 -67 -146 -21 -46 -38 -87 -38 -93
0 -9 -20 -49 -30 -59 -3 -3 -6 -10 -7 -16 -2 -11 -430 -992 -458 -1049 -8 -16
-60 -133 -116 -260 -55 -126 -105 -232 -110 -233 -5 -2 -7 -7 -4 -12 3 -4 -31
-88 -74 -186 -43 -99 -111 -253 -151 -344 -39 -91 -87 -199 -106 -241 -45
-101 -50 -129 -29 -168 29 -57 44 -59 438 -59 309 1 362 3 389 17 28 14 64 82
314 581 155 311 328 658 384 773 57 114 106 209 110 212 5 3 30 -57 35 -85 0
-3 4 -11 8 -18 5 -6 5 -17 2 -22 -3 -5 -1 -10 4 -10 6 0 11 -5 11 -10 0 -19
128 -355 185 -486 31 -71 57 -135 57 -141 1 -7 5 -13 10 -13 4 0 8 -9 8 -19 0
-11 3 -21 8 -23 4 -2 20 -30 37 -63 224 -448 507 -679 905 -739 138 -20 371
-14 477 13 343 87 578 330 697 722 19 63 37 135 41 160 4 24 10 62 14 85 4 22
9 70 10 107 3 110 -39 154 -140 143 -24 -3 -75 -8 -114 -11 -82 -7 -115 -31
-134 -98 -34 -117 -160 -234 -311 -289 -51 -19 -156 -46 -182 -47 -68 -2 -106
-1 -126 3 -84 18 -202 134 -302 296 -46 75 -150 280 -185 365 -16 39 -41 97
-55 130 -96 217 -235 599 -224 616 4 7 3 9 -3 6 -5 -3 -18 20 -30 51 -61 173
-168 474 -184 517 -10 28 -35 95 -55 150 -242 669 -404 1052 -582 1377 -243
442 -472 686 -733 778 -78 28 -265 35 -374 15z m340 -107 c190 -56 371 -228
578 -548 76 -118 288 -539 367 -730 59 -141 141 -350 144 -365 1 -5 4 -14 8
-20 7 -11 139 -370 203 -550 23 -66 82 -230 130 -365 48 -135 88 -249 89 -255
1 -5 4 -14 8 -20 3 -5 27 -68 52 -140 26 -71 51 -139 56 -150 5 -11 41 -101
81 -200 65 -163 203 -458 261 -560 97 -169 213 -298 318 -355 62 -34 69 -35
165 -34 281 1 551 166 635 388 17 44 21 45 134 49 l69 2 0 -30 c0 -26 -3 -54
-18 -155 -36 -247 -158 -498 -314 -642 -165 -153 -349 -219 -609 -219 -67 0
-126 2 -130 5 -4 2 -32 7 -63 10 -143 17 -315 88 -434 179 -155 120 -319 342
-428 577 -21 47 -52 114 -69 148 -41 88 -131 321 -185 477 -114 334 -120 347
-171 331 -13 -4 -152 -275 -430 -836 l-412 -830 -350 0 c-193 0 -350 4 -350 8
0 5 88 208 196 453 108 244 234 532 281 639 47 107 95 218 108 245 13 28 135
306 273 620 137 314 262 597 277 630 110 240 106 210 54 433 -97 409 -238 775
-384 997 -109 164 -239 279 -370 327 -81 29 -210 31 -280 4 -71 -27 -153 -81
-203 -135 -41 -43 -122 -153 -122 -165 0 -3 -11 -29 -24 -58 -31 -67 -52 -140
-61 -212 l-7 -57 -62 5 c-33 2 -76 5 -93 5 l-33 1 0 56 c0 34 4 53 10 49 6 -4
7 2 2 17 -11 28 25 213 63 331 133 406 434 652 817 666 34 1 64 3 65 5 5 5
116 -13 158 -26z"/>
</g>
</svg>
